<svg xmlns="http://www.w3.org/2000/svg">
  <defs>
    <symbol id="icon-back" viewBox="0 0 48 60">
      <path d="M31.8,22.5H9.12l10.94-10.94c.56-.61.53-1.56-.07-2.12-.58-.54-1.47-.54-2.05,0l-13.5,13.5c-.13.13-.23.28-.3.44h0c-.03.07-.05.14-.07.22,0,.02,0,.04,0,.06-.04.11-.06.22-.07.34h0v.29c.06.3.2.57.42.78l13.52,13.49c.59.58,1.53.58,2.12,0,.59-.58.59-1.52.01-2.11,0,0,0,0-.01-.01l-10.94-10.94h22.68c.83,0,1.5-.67,1.5-1.5s-.67-1.5-1.5-1.5Z"/>
    </symbol>

    <symbol id="icon-check" viewBox="0 0 100 125">
      <path d="M65.69,35.76l-21.68,21.67-9.7-9.7c-1.25-1.25-3.29-1.25-4.54,0s-1.25,3.29,0,4.54l11.97,11.97c.63.63,1.45.94,2.27.94s1.64-.31,2.27-.94l23.95-23.94c1.25-1.25,1.25-3.29,0-4.54-1.26-1.26-3.29-1.26-4.54,0Z"/>
      <path d="M50,10c-22.06,0-40,17.94-40,40s17.94,40,40,40,40-17.94,40-40S72.06,10,50,10ZM50,83.58c-18.51,0-33.58-15.06-33.58-33.58S31.49,16.42,50,16.42s33.58,15.06,33.58,33.58-15.07,33.58-33.58,33.58Z"/>
    </symbol>

    <symbol id="icon-dollar" viewBox="0 0 48.46 90.01">
      <path d="M38.86,66.55c-2.23,3.17-6.08,5.26-10.67,6.05v-22.26c1.4.48,2.75.99,4.03,1.62,4.38,2.18,7.33,5.2,8.11,8.29.53,2.09.05,4.15-1.46,6.3h-.01ZM20.28,39.59c-.43-.15-2.78-.91-4.03-1.53-4.37-2.17-7.33-5.2-8.11-8.28-.53-2.1-.06-4.15,1.46-6.31,2.23-3.16,6.1-5.23,10.67-6.03v22.15h0ZM35.74,44.88c-2.5-1.25-5.01-2.07-7.45-2.86l-.1-.02v-24.58c5.93.92,10.77,3.78,12.74,7.87.21.44.52.81.86,1.14,1.16,1.1,2.9,1.44,4.41.71,1.97-.95,2.79-3.32,1.84-5.29-3.23-6.73-10.81-11.37-19.86-12.44V3.96c0-2.19-1.76-3.96-3.96-3.96s-3.96,1.76-3.96,3.96v5.44c-7.2.93-13.48,4.3-17.15,9.51C.28,22.95-.64,27.37.45,31.7c1.37,5.4,5.72,10.17,12.26,13.43,2.49,1.23,4.98,2.05,7.39,2.83l.17.05v24.58c-5.93-.93-10.77-3.79-12.74-7.87-.21-.45-.52-.82-.86-1.15-1.16-1.08-2.9-1.42-4.41-.7-1.97.94-2.79,3.31-1.84,5.28,3.23,6.73,10.81,11.37,19.86,12.44v5.46c0,2.18,1.77,3.96,3.96,3.96s3.96-1.77,3.96-3.96v-5.55c7.19-.94,13.48-4.19,17.15-9.4,2.84-4.03,3.76-8.45,2.66-12.79-1.37-5.4-5.71-10.17-12.26-13.43h-.01Z" style="fill-rule: evenodd;"/>
    </symbol>

    <symbol id="icon-house" viewBox="0 0 110 135">
      <path d="M101.3,56.4L57.3,16.9c-.1-.1-.2-.1-.2-.2h-.1c-.1,0-.1-.1-.2-.1,0,0-.1,0-.1-.1-.1,0-.1-.1-.2-.1s-.1,0-.2-.1c0,0-.1,0-.1-.1q-.1,0-.2-.1h-1.9q-.1,0-.2.1t-.2.1-.2.1c-.1,0-.1.1-.2.1,0,0-.1,0-.1.1-.1,0-.2.1-.2.1h-.1c-.1.1-.2.1-.2.2L8.7,56.4c-1.5,1.3-1.6,3.5-.3,5,.7.8,1.7,1.2,2.6,1.2.8,0,1.7-.3,2.4-.9l3.7-3.3v42.3c0,2,1.6,3.5,3.5,3.5h68.8c2,0,3.5-1.6,3.5-3.5v-42.4l3.7,3.3c.7.6,1.5.9,2.4.9,1,0,1.9-.4,2.6-1.2,1.3-1.4,1.2-3.6-.3-4.9h0ZM61.3,97h-12.6v-26.3h12.6v26.3ZM85.9,97h-17.5v-26.8c0-3.6-3-6.6-6.6-6.6h-6.8s-6.7,0-6.7,0c-3.6,0-6.6,3-6.6,6.6v26.8h-17.6v-45.1l30.9-27.7,30.9,27.8v45Z"/>
    </symbol>

    <symbol id="icon-item" viewBox="0 0 110 135">
      <path d="M83,81v-30.88c0-1.74-.46-3.45-1.32-4.96l-5.79-10.14c-1.07-1.86-3.06-3.02-5.21-3.02h-31.36c-2.15,0-4.14,1.16-5.21,3.02l-5.79,10.14c-.86,1.51-1.32,3.22-1.32,4.96v30.88c0,3.86,3.14,7,7,7h42c3.86,0,7-3.14,7-7h0ZM57,36h14.84l6.92,12.1c.22.39.22.87,0,1.26-.23.39-.65.63-1.1.63h-20.65v-14h-.01ZM31.25,48.1l6.92-12.1h14.84v14h-20.65c-.45,0-.87-.24-1.1-.63s-.23-.88,0-1.27h-.01ZM76,84h-42c-1.65,0-3-1.35-3-3v-27h22v11.83c0,1.12.79,2.07,1.8,2.16.58.06,1.13-.12,1.55-.51.42-.38.66-.92.66-1.48v-12h22v27c0,1.65-1.34,3-3,3h-.01Z"/>
    </symbol>

    <symbol id="icon-plus"  viewBox="0 0 100 125">
      <path d="M50,13c-2.21,0-4,1.79-4,4v29h-29c-2.21,0-4,1.79-4,4s1.79,4,4,4h29v29c0,2.21,1.79,4,4,4s4-1.79,4-4v-29h29c2.21,0,4-1.79,4-4s-1.79-4-4-4h-29v-29c0-2.21-1.79-4-4-4Z"/>
    </symbol>

    <symbol id="icon-receipt"  viewBox="0 0 110 135">
      <path d="M19.71,11.69l7.62,6.28,7.77-6.41c.87-.72,2.11-.68,2.94.03l7.74,6.38,7.77-6.41c.87-.72,2.11-.68,2.94.03l7.74,6.38,7.77-6.41c.87-.72,2.11-.68,2.94.03l7.74,6.38,7.77-6.41c.98-.8,2.42-.66,3.22.31.35.43.52.94.52,1.45h0v93.34c0,1.27-1.03,2.3-2.3,2.3-.63,0-1.2-.25-1.61-.66l-7.62-6.28-7.77,6.41c-.87.72-2.11.68-2.94-.03l-7.74-6.38-7.77,6.41c-.87.72-2.11.68-2.94-.03l-7.74-6.38-7.77,6.41c-.87.72-2.11.68-2.94-.03l-7.74-6.38-7.77,6.41c-.98.8-2.42.66-3.22-.31-.35-.43-.52-.94-.52-1.45h0V13.33c0-1.27,1.03-2.3,2.3-2.3.62,0,1.2.25,1.61.66h0ZM34,86.65c-1.27,0-2.3-1.03-2.3-2.3s1.03-2.3,2.3-2.3h21.01c1.27,0,2.3,1.03,2.3,2.3s-1.03,2.3-2.3,2.3h-21.01ZM70.08,86.65c-1.27,0-2.3-1.03-2.3-2.3s1.03-2.3,2.3-2.3h5.93c1.27,0,2.3,1.03,2.3,2.3s-1.03,2.3-2.3,2.3h-5.93ZM34,70.41c-1.27,0-2.3-1.03-2.3-2.3s1.03-2.3,2.3-2.3h42.01c1.27,0,2.3,1.03,2.3,2.3s-1.03,2.3-2.3,2.3h-42.01ZM34,54.18c-1.27,0-2.3-1.03-2.3-2.3s1.03-2.3,2.3-2.3h42.01c1.27,0,2.3,1.03,2.3,2.3s-1.03,2.3-2.3,2.3h-42.01ZM34,37.94c-1.27,0-2.3-1.03-2.3-2.3s1.03-2.3,2.3-2.3h42.01c1.27,0,2.3,1.03,2.3,2.3s-1.03,2.3-2.3,2.3h-42.01ZM25.87,22.7l-5.48-4.52v83.63l5.45-4.49c.83-.71,2.07-.74,2.94-.03l7.77,6.41,7.74-6.38c.83-.71,2.07-.74,2.94-.03l7.77,6.41,7.74-6.38c.83-.71,2.07-.74,2.94-.03l7.77,6.41,7.74-6.38c.83-.71,2.07-.74,2.94-.03l5.48,4.52V18.19l-5.45,4.49c-.83.71-2.07.74-2.94.03l-7.77-6.41-7.74,6.38c-.83.71-2.07.74-2.94.03l-7.77-6.41-7.74,6.38c-.83.71-2.07.74-2.94.03l-7.77-6.41-7.74,6.38c-.83.71-2.07.74-2.94.03h0Z"/>
    </symbol>

    <symbol id="icon-trading"  viewBox="0 0 93.58 85.39">
      <path d="M38.7,11.12h29.6V1.69c0-1.43,1.73-2.29,2.88-1.18l21.85,19.84c.73.66.74,1.8-.02,2.49l-21.91,19.9c-1.08.98-2.8.2-2.8-1.24h0v-9.43H25.53c-1.04,0-1.86-.93-1.64-2.07,1.24-6.12.8-11.33,5.91-15.66,2.41-2.04,5.51-3.23,8.89-3.23h.01ZM69.98,14.48h-31.28c-5.13,0-9.39,3.61-10.24,8.66l-.94,5.58h42.46c.93,0,1.68.75,1.68,1.68v7.32l17.75-16.11-17.75-16.12v7.31c0,.93-.75,1.68-1.68,1.68h0ZM54.88,74.3c3.38,0,6.48-1.2,8.89-3.23,5.11-4.32,4.67-9.54,5.91-15.66.23-1.14-.59-2.07-1.64-2.07H25.27v-9.43h0c0-1.44-1.72-2.22-2.8-1.24L.56,62.56c-.75.69-.74,1.83-.02,2.49l21.85,19.84c1.16,1.11,2.88.25,2.88-1.18v-9.43h29.6v.02ZM23.59,70.94c-.93,0-1.68.75-1.68,1.68v7.32L4.16,63.82l17.75-16.11v7.32c0,.93.75,1.68,1.68,1.68h42.46l-.94,5.58c-.85,5.05-5.12,8.66-10.24,8.66h-31.29.01Z" style="fill-rule: evenodd;"/>
    </symbol>

    <symbol id="icon-user"  viewBox="0 0 50 62.5">
      <path d="M25,1C11.77,1,1,11.77,1,25c0,7.09,3.09,13.47,8,17.87v.02l.35.3c.06.05.13.1.19.15.43.36.88.71,1.33,1.05.12.09.25.18.37.26.48.34.98.66,1.49.97.09.05.17.1.26.15.56.32,1.13.63,1.71.91,0,0,.01,0,.02,0,1.25.6,2.56,1.08,3.91,1.46.02,0,.05.01.08.02.64.17,1.29.32,1.95.44.06.01.12.02.18.03.64.11,1.28.2,1.94.26.08,0,.15.01.22.02.66.06,1.32.09,2,.09s1.34-.03,2-.09c.08,0,.15,0,.22-.02.66-.06,1.3-.15,1.94-.26.06-.01.12-.02.18-.03.66-.12,1.31-.27,1.95-.44.02,0,.05-.01.08-.02,1.36-.37,2.67-.86,3.92-1.46,0,0,.01,0,.02,0,.58-.28,1.15-.58,1.71-.91.09-.05.17-.1.26-.15.51-.3,1-.63,1.49-.97.12-.09.25-.17.37-.26.46-.33.9-.68,1.33-1.05.06-.05.13-.1.19-.15l.35-.3v-.02c4.91-4.4,8-10.78,8-17.87,0-13.23-10.77-24-24-24ZM25,25c-4.41,0-8-3.59-8-8s3.59-8,8-8,8,3.59,8,8-3.59,8-8,8ZM28,27c6.06,0,11,4.93,11,11v3.96s-.09.07-.13.1c-.4.32-.8.63-1.21.92-.09.06-.18.13-.27.19-.45.31-.91.59-1.37.86-.08.05-.17.1-.26.15-.49.28-.99.53-1.5.77-.05.03-.11.05-.16.07-1.66.76-3.41,1.3-5.21,1.63-.06,0-.11.02-.17.03-.57.1-1.14.17-1.72.22-.08,0-.16.01-.24.02-.58.05-1.17.08-1.76.08s-1.17-.03-1.76-.08c-.08,0-.16-.01-.24-.02-.58-.05-1.15-.13-1.72-.22-.06,0-.11-.02-.17-.03-1.8-.32-3.55-.87-5.21-1.63-.05-.03-.11-.05-.16-.07-.51-.24-1.01-.49-1.5-.77-.09-.05-.17-.1-.26-.15-.47-.27-.93-.56-1.37-.86-.09-.06-.18-.13-.27-.19-.41-.29-.82-.6-1.21-.92-.04-.03-.09-.07-.13-.1v-3.96c0-6.07,4.93-11,11-11h6ZM41,40.08v-2.08c0-6.27-4.46-11.52-10.38-12.74,2.64-1.8,4.38-4.83,4.38-8.26,0-5.51-4.49-10-10-10s-10,4.49-10,10c0,3.43,1.74,6.46,4.38,8.26-5.92,1.22-10.38,6.46-10.38,12.74v2.08c-3.72-3.94-6-9.25-6-15.08C3,12.87,12.87,3,25,3s22,9.87,22,22c0,5.83-2.28,11.13-6,15.08Z"/>
    </symbol>
  </defs>
</svg>
