<?xml version="1.0" encoding="UTF-8"?>
<svg id="Layer_2" data-name="Layer 2" xmlns="http://www.w3.org/2000/svg" viewBox="0 0 48.46 90.01">
  <g id="Layer_1-2" data-name="Layer 1">
    <path d="M38.86,66.55c-2.23,3.17-6.08,5.26-10.67,6.05v-22.26c1.4.48,2.75.99,4.03,1.62,4.38,2.18,7.33,5.2,8.11,8.29.53,2.09.05,4.15-1.46,6.3h-.01ZM20.28,39.59c-.43-.15-2.78-.91-4.03-1.53-4.37-2.17-7.33-5.2-8.11-8.28-.53-2.1-.06-4.15,1.46-6.31,2.23-3.16,6.1-5.23,10.67-6.03v22.15h0ZM35.74,44.88c-2.5-1.25-5.01-2.07-7.45-2.86l-.1-.02v-24.58c5.93.92,10.77,3.78,12.74,7.87.21.44.52.81.86,1.14,1.16,1.1,2.9,1.44,4.41.71,1.97-.95,2.79-3.32,1.84-5.29-3.23-6.73-10.81-11.37-19.86-12.44V3.96c0-2.19-1.76-3.96-3.96-3.96s-3.96,1.76-3.96,3.96v5.44c-7.2.93-13.48,4.3-17.15,9.51C.28,22.95-.64,27.37.45,31.7c1.37,5.4,5.72,10.17,12.26,13.43,2.49,1.23,4.98,2.05,7.39,2.83l.17.05v24.58c-5.93-.93-10.77-3.79-12.74-7.87-.21-.45-.52-.82-.86-1.15-1.16-1.08-2.9-1.42-4.41-.7-1.97.94-2.79,3.31-1.84,5.28,3.23,6.73,10.81,11.37,19.86,12.44v5.46c0,2.18,1.77,3.96,3.96,3.96s3.96-1.77,3.96-3.96v-5.55c7.19-.94,13.48-4.19,17.15-9.4,2.84-4.03,3.76-8.45,2.66-12.79-1.37-5.4-5.71-10.17-12.26-13.43h-.01Z" style="fill-rule: evenodd;"/>
  </g>
</svg>