<?xml version="1.0" encoding="UTF-8"?>
<svg id="Layer_1" xmlns="http://www.w3.org/2000/svg" version="1.1" viewBox="0 0 100 125">
  <!-- Generator: Adobe Illustrator 29.8.2, SVG Export Plug-In . SVG Version: 2.1.1 Build 3)  -->
  <path d="M65.69,35.76l-21.68,21.67-9.7-9.7c-1.25-1.25-3.29-1.25-4.54,0s-1.25,3.29,0,4.54l11.97,11.97c.63.63,1.45.94,2.27.94s1.64-.31,2.27-.94l23.95-23.94c1.25-1.25,1.25-3.29,0-4.54-1.26-1.26-3.29-1.26-4.54,0Z"/>
  <path d="M50,10c-22.06,0-40,17.94-40,40s17.94,40,40,40,40-17.94,40-40S72.06,10,50,10ZM50,83.58c-18.51,0-33.58-15.06-33.58-33.58S31.49,16.42,50,16.42s33.58,15.06,33.58,33.58-15.07,33.58-33.58,33.58Z"/>
</svg>