<?xml version="1.0" encoding="UTF-8"?>
<svg id="Layer_1" xmlns="http://www.w3.org/2000/svg" version="1.1" viewBox="0 0 50 62.5">
  <!-- Generator: Adobe Illustrator 29.8.2, SVG Export Plug-In . SVG Version: 2.1.1 Build 3)  -->
  <path d="M25,1C11.77,1,1,11.77,1,25c0,7.09,3.09,13.47,8,17.87v.02l.35.3c.06.05.13.1.19.15.43.36.88.71,1.33,1.05.12.09.25.18.37.26.48.34.98.66,1.49.97.09.05.17.1.26.15.56.32,1.13.63,1.71.91,0,0,.01,0,.02,0,1.25.6,2.56,1.08,3.91,1.46.02,0,.05.01.08.02.64.17,1.29.32,1.95.44.06.01.12.02.18.03.64.11,1.28.2,1.94.26.08,0,.15.01.22.02.66.06,1.32.09,2,.09s1.34-.03,2-.09c.08,0,.15,0,.22-.02.66-.06,1.3-.15,1.94-.26.06-.01.12-.02.18-.03.66-.12,1.31-.27,1.95-.44.02,0,.05-.01.08-.02,1.36-.37,2.67-.86,3.92-1.46,0,0,.01,0,.02,0,.58-.28,1.15-.58,1.71-.91.09-.05.17-.1.26-.15.51-.3,1-.63,1.49-.97.12-.09.25-.17.37-.26.46-.33.9-.68,1.33-1.05.06-.05.13-.1.19-.15l.35-.3v-.02c4.91-4.4,8-10.78,8-17.87,0-13.23-10.77-24-24-24ZM25,25c-4.41,0-8-3.59-8-8s3.59-8,8-8,8,3.59,8,8-3.59,8-8,8ZM28,27c6.06,0,11,4.93,11,11v3.96s-.09.07-.13.1c-.4.32-.8.63-1.21.92-.09.06-.18.13-.27.19-.45.31-.91.59-1.37.86-.08.05-.17.1-.26.15-.49.28-.99.53-1.5.77-.05.03-.11.05-.16.07-1.66.76-3.41,1.3-5.21,1.63-.06,0-.11.02-.17.03-.57.1-1.14.17-1.72.22-.08,0-.16.01-.24.02-.58.05-1.17.08-1.76.08s-1.17-.03-1.76-.08c-.08,0-.16-.01-.24-.02-.58-.05-1.15-.13-1.72-.22-.06,0-.11-.02-.17-.03-1.8-.32-3.55-.87-5.21-1.63-.05-.03-.11-.05-.16-.07-.51-.24-1.01-.49-1.5-.77-.09-.05-.17-.1-.26-.15-.47-.27-.93-.56-1.37-.86-.09-.06-.18-.13-.27-.19-.41-.29-.82-.6-1.21-.92-.04-.03-.09-.07-.13-.1v-3.96c0-6.07,4.93-11,11-11h6ZM41,40.08v-2.08c0-6.27-4.46-11.52-10.38-12.74,2.64-1.8,4.38-4.83,4.38-8.26,0-5.51-4.49-10-10-10s-10,4.49-10,10c0,3.43,1.74,6.46,4.38,8.26-5.92,1.22-10.38,6.46-10.38,12.74v2.08c-3.72-3.94-6-9.25-6-15.08C3,12.87,12.87,3,25,3s22,9.87,22,22c0,5.83-2.28,11.13-6,15.08Z"/>
</svg>