<?xml version="1.0" encoding="UTF-8"?>
<svg id="Layer_1" xmlns="http://www.w3.org/2000/svg" version="1.1" viewBox="0 0 110 135">
  <!-- Generator: Adobe Illustrator 29.8.2, SVG Export Plug-In . SVG Version: 2.1.1 Build 3)  -->
  <path d="M101.3,56.4L57.3,16.9c-.1-.1-.2-.1-.2-.2h-.1c-.1,0-.1-.1-.2-.1,0,0-.1,0-.1-.1-.1,0-.1-.1-.2-.1s-.1,0-.2-.1c0,0-.1,0-.1-.1q-.1,0-.2-.1h-1.9q-.1,0-.2.1t-.2.1-.2.1c-.1,0-.1.1-.2.1,0,0-.1,0-.1.1-.1,0-.2.1-.2.1h-.1c-.1.1-.2.1-.2.2L8.7,56.4c-1.5,1.3-1.6,3.5-.3,5,.7.8,1.7,1.2,2.6,1.2.8,0,1.7-.3,2.4-.9l3.7-3.3v42.3c0,2,1.6,3.5,3.5,3.5h68.8c2,0,3.5-1.6,3.5-3.5v-42.4l3.7,3.3c.7.6,1.5.9,2.4.9,1,0,1.9-.4,2.6-1.2,1.3-1.4,1.2-3.6-.3-4.9h0ZM61.3,97h-12.6v-26.3h12.6v26.3ZM85.9,97h-17.5v-26.8c0-3.6-3-6.6-6.6-6.6h-6.8s-6.7,0-6.7,0c-3.6,0-6.6,3-6.6,6.6v26.8h-17.6v-45.1l30.9-27.7,30.9,27.8v45Z"/>
</svg>