<?xml version="1.0" encoding="UTF-8"?>
<svg id="Layer_1" xmlns="http://www.w3.org/2000/svg" version="1.1" viewBox="0 0 110 135">
  <!-- Generator: Adobe Illustrator 29.8.2, SVG Export Plug-In . SVG Version: 2.1.1 Build 3)  -->
  <defs>
    <style>
      .st0 {
        fill-rule: evenodd;
      }
    </style>
  </defs>
  <path class="st0" d="M46.91,28.41h29.6v-9.43c0-1.43,1.73-2.29,2.88-1.18l21.85,19.84c.73.66.74,1.8-.02,2.49l-21.91,19.9c-1.08.98-2.8.2-2.8-1.24h0v-9.43h-42.77c-1.04,0-1.86-.93-1.64-2.07,1.24-6.12.8-11.33,5.91-15.66,2.41-2.04,5.51-3.23,8.89-3.23h0ZM78.19,31.77h-31.28c-5.13,0-9.39,3.61-10.24,8.66l-.94,5.58h42.46c.93,0,1.68.75,1.68,1.68v7.32l17.75-16.11-17.75-16.12v7.31c0,.93-.75,1.68-1.68,1.68h0ZM63.09,91.59c3.38,0,6.48-1.2,8.89-3.23,5.11-4.32,4.67-9.54,5.91-15.66.23-1.14-.59-2.07-1.64-2.07h-42.77v-9.43h0c0-1.44-1.72-2.22-2.8-1.24l-21.91,19.89c-.75.69-.74,1.83-.02,2.49l21.85,19.84c1.16,1.11,2.88.25,2.88-1.18v-9.43h29.6ZM31.8,88.23c-.93,0-1.68.75-1.68,1.68v7.32l-17.75-16.12,17.75-16.11v7.32c0,.93.75,1.68,1.68,1.68h42.46l-.94,5.58c-.85,5.05-5.12,8.66-10.24,8.66h-31.29Z"/>
</svg>