<?xml version="1.0" encoding="UTF-8"?>
<svg id="Layer_1" xmlns="http://www.w3.org/2000/svg" version="1.1" viewBox="0 0 110 135">
  <!-- Generator: Adobe Illustrator 29.8.2, SVG Export Plug-In . SVG Version: 2.1.1 Build 3)  -->
  <path d="M83,81v-30.88c0-1.74-.46-3.45-1.32-4.96l-5.79-10.14c-1.07-1.86-3.06-3.02-5.21-3.02h-31.36c-2.15,0-4.14,1.16-5.21,3.02l-5.79,10.14c-.86,1.51-1.32,3.22-1.32,4.96v30.88c0,3.86,3.14,7,7,7h42c3.86,0,7-3.14,7-7h0ZM57,36h14.84l6.92,12.1c.22.39.22.87,0,1.26-.23.39-.65.63-1.1.63h-20.65v-14h-.01ZM31.25,48.1l6.92-12.1h14.84v14h-20.65c-.45,0-.87-.24-1.1-.63s-.23-.88,0-1.27h-.01ZM76,84h-42c-1.65,0-3-1.35-3-3v-27h22v11.83c0,1.12.79,2.07,1.8,2.16.58.06,1.13-.12,1.55-.51.42-.38.66-.92.66-1.48v-12h22v27c0,1.65-1.34,3-3,3h-.01Z"/>
</svg>