<?xml version="1.0" encoding="UTF-8"?>
<svg id="Layer_1" xmlns="http://www.w3.org/2000/svg" version="1.1" viewBox="0 0 110 135">
  <!-- Generator: Adobe Illustrator 29.8.2, SVG Export Plug-In . SVG Version: 2.1.1 Build 3)  -->
  <path d="M19.71,11.69l7.62,6.28,7.77-6.41c.87-.72,2.11-.68,2.94.03l7.74,6.38,7.77-6.41c.87-.72,2.11-.68,2.94.03l7.74,6.38,7.77-6.41c.87-.72,2.11-.68,2.94.03l7.74,6.38,7.77-6.41c.98-.8,2.42-.66,3.22.31.35.43.52.94.52,1.45h0v93.34c0,1.27-1.03,2.3-2.3,2.3-.63,0-1.2-.25-1.61-.66l-7.62-6.28-7.77,6.41c-.87.72-2.11.68-2.94-.03l-7.74-6.38-7.77,6.41c-.87.72-2.11.68-2.94-.03l-7.74-6.38-7.77,6.41c-.87.72-2.11.68-2.94-.03l-7.74-6.38-7.77,6.41c-.98.8-2.42.66-3.22-.31-.35-.43-.52-.94-.52-1.45h0V13.33c0-1.27,1.03-2.3,2.3-2.3.62,0,1.2.25,1.61.66h0ZM34,86.65c-1.27,0-2.3-1.03-2.3-2.3s1.03-2.3,2.3-2.3h21.01c1.27,0,2.3,1.03,2.3,2.3s-1.03,2.3-2.3,2.3h-21.01ZM70.08,86.65c-1.27,0-2.3-1.03-2.3-2.3s1.03-2.3,2.3-2.3h5.93c1.27,0,2.3,1.03,2.3,2.3s-1.03,2.3-2.3,2.3h-5.93ZM34,70.41c-1.27,0-2.3-1.03-2.3-2.3s1.03-2.3,2.3-2.3h42.01c1.27,0,2.3,1.03,2.3,2.3s-1.03,2.3-2.3,2.3h-42.01ZM34,54.18c-1.27,0-2.3-1.03-2.3-2.3s1.03-2.3,2.3-2.3h42.01c1.27,0,2.3,1.03,2.3,2.3s-1.03,2.3-2.3,2.3h-42.01ZM34,37.94c-1.27,0-2.3-1.03-2.3-2.3s1.03-2.3,2.3-2.3h42.01c1.27,0,2.3,1.03,2.3,2.3s-1.03,2.3-2.3,2.3h-42.01ZM25.87,22.7l-5.48-4.52v83.63l5.45-4.49c.83-.71,2.07-.74,2.94-.03l7.77,6.41,7.74-6.38c.83-.71,2.07-.74,2.94-.03l7.77,6.41,7.74-6.38c.83-.71,2.07-.74,2.94-.03l7.77,6.41,7.74-6.38c.83-.71,2.07-.74,2.94-.03l5.48,4.52V18.19l-5.45,4.49c-.83.71-2.07.74-2.94.03l-7.77-6.41-7.74,6.38c-.83.71-2.07.74-2.94.03l-7.77-6.41-7.74,6.38c-.83.71-2.07.74-2.94.03l-7.77-6.41-7.74,6.38c-.83.71-2.07.74-2.94.03h0Z"/>
</svg>