<?xml version="1.0" encoding="UTF-8"?>
<svg id="Layer_1" xmlns="http://www.w3.org/2000/svg" version="1.1" viewBox="0 0 48 60">
  <!-- Generator: Adobe Illustrator 29.8.2, SVG Export Plug-In . SVG Version: 2.1.1 Build 3)  -->
  <path d="M31.8,22.5H9.12l10.94-10.94c.56-.61.53-1.56-.07-2.12-.58-.54-1.47-.54-2.05,0l-13.5,13.5c-.13.13-.23.28-.3.44h0c-.03.07-.05.14-.07.22,0,.02,0,.04,0,.06-.04.11-.06.22-.07.34h0v.29c.06.3.2.57.42.78l13.52,13.49c.59.58,1.53.58,2.12,0,.59-.58.59-1.52.01-2.11,0,0,0,0-.01-.01l-10.94-10.94h22.68c.83,0,1.5-.67,1.5-1.5s-.67-1.5-1.5-1.5Z"/>
</svg>