<?xml version="1.0" encoding="UTF-8"?>
<svg id="Layer_1" xmlns="http://www.w3.org/2000/svg" version="1.1" xmlns:sketch="http://www.bohemiancoding.com/sketch/ns" viewBox="0 0 100 125">
  <!-- Generator: Adobe Illustrator 29.8.2, SVG Export Plug-In . SVG Version: 2.1.1 Build 3)  -->
  <defs>
    <style>
      .st0 {
        fill-rule: evenodd;
      }
    </style>
  </defs>
  <path class="st0" d="M64.8,71.5c-2.2,3.2-6.1,5.3-10.7,6.1v-22.3c1.4.5,2.8,1,4,1.6,4.4,2.2,7.3,5.2,8.1,8.3.5,2.1,0,4.2-1.5,6.3h0ZM46.3,44.6c-.4-.2-2.8-.9-4-1.5-4.4-2.2-7.3-5.2-8.1-8.3-.5-2.1,0-4.1,1.5-6.3,2.2-3.2,6.1-5.2,10.7-6v22.1h0ZM61.7,49.9c-2.5-1.2-5-2.1-7.5-2.9h0v-24.6c5.9.9,10.8,3.8,12.7,7.9.2.4.5.8.9,1.1,1.2,1.1,2.9,1.4,4.4.7,2-1,2.8-3.3,1.8-5.3-3.2-6.7-10.8-11.4-19.9-12.4v-5.4c0-2.2-1.8-4-4-4s-4,1.8-4,4v5.4c-7.2.9-13.5,4.3-17.1,9.5-2.8,4-3.8,8.5-2.7,12.8,1.4,5.4,5.7,10.2,12.3,13.4,2.5,1.2,5,2,7.4,2.8h.2v24.6c-5.9-.9-10.8-3.8-12.7-7.9-.2-.4-.5-.8-.9-1.2-1.2-1.1-2.9-1.4-4.4-.7-2,.9-2.8,3.3-1.8,5.3,3.2,6.7,10.8,11.4,19.9,12.4v5.5c0,2.2,1.8,4,4,4s4-1.8,4-4v-5.6c7.2-.9,13.5-4.2,17.2-9.4,2.8-4,3.8-8.4,2.7-12.8-1.4-5.4-5.7-10.2-12.3-13.4h0Z" sketch:type="MSShapeGroup"/>
</svg>