<?xml version="1.0" encoding="UTF-8"?>
<svg id="Layer_2" data-name="Layer 2" xmlns="http://www.w3.org/2000/svg" viewBox="0 0 93.58 85.39">
  <g id="Layer_1-2" data-name="Layer 1">
    <path d="M38.7,11.12h29.6V1.69c0-1.43,1.73-2.29,2.88-1.18l21.85,19.84c.73.66.74,1.8-.02,2.49l-21.91,19.9c-1.08.98-2.8.2-2.8-1.24h0v-9.43H25.53c-1.04,0-1.86-.93-1.64-2.07,1.24-6.12.8-11.33,5.91-15.66,2.41-2.04,5.51-3.23,8.89-3.23h.01ZM69.98,14.48h-31.28c-5.13,0-9.39,3.61-10.24,8.66l-.94,5.58h42.46c.93,0,1.68.75,1.68,1.68v7.32l17.75-16.11-17.75-16.12v7.31c0,.93-.75,1.68-1.68,1.68h0ZM54.88,74.3c3.38,0,6.48-1.2,8.89-3.23,5.11-4.32,4.67-9.54,5.91-15.66.23-1.14-.59-2.07-1.64-2.07H25.27v-9.43h0c0-1.44-1.72-2.22-2.8-1.24L.56,62.56c-.75.69-.74,1.83-.02,2.49l21.85,19.84c1.16,1.11,2.88.25,2.88-1.18v-9.43h29.6v.02ZM23.59,70.94c-.93,0-1.68.75-1.68,1.68v7.32L4.16,63.82l17.75-16.11v7.32c0,.93.75,1.68,1.68,1.68h42.46l-.94,5.58c-.85,5.05-5.12,8.66-10.24,8.66h-31.29.01Z" style="fill-rule: evenodd;"/>
  </g>
</svg>